<svg xmlns="http://www.w3.org/2000/svg" viewBox="0 0 48 48">
  <path fill="#FFC107" d="M43.6 20H24v8h11.3C33.6 33.4 29.3 36 24 36c-6.6 0-12-5.4-12-12s5.4-12 12-12c3 0 5.7 1.1 7.8 2.9l5.7-5.7C33.9 6.6 29.2 4.8 24 4.8 12.8 4.8 4 13.6 4 24s8.8 19.2 20 19.2c11 0 19.6-8 19.6-19.2 0-1-.1-2-.1-3z"/>
  <path fill="#FF3D00" d="M6.3 14.7l6.6 4.8C14.6 15.1 19 12 24 12c3 0 5.7 1.1 7.8 2.9l5.7-5.7C33.9 6.6 29.2 4.8 24 4.8c-7.6 0-14.2 4.2-17.7 9.9z"/>
  <path fill="#4CAF50" d="M24 43.2c5.1 0 9.8-1.7 13.4-4.6L31 33.8C29.1 35.1 26.6 36 24 36c-5.3 0-9.6-2.6-11.3-6.7L6 34.3c3.4 5.8 10 8.9 18 8.9z"/>
  <path fill="#1976D2" d="M43.6 20H24v8h11.3c-.9 2.6-2.7 4.8-5.1 6.2l6.4 4.8c3.8-3.5 6.4-8.7 6.4-14.8 0-1-.1-2-.1-3z"/>
</svg>
